# xmcd
#
# Track frame offsets:
#	150
#	24372
#	43900
#	58017
#	78985
#	99890
#	115225
#	136875
#	153560
#	173150
#
# Disc length: 2511 seconds
#
# Revision: 0
# Processed by: cddbd v1.5.2PL0 Copyright (c) Steve Scherf et al.
# Submitted via: dBpowerAMP V4.0
#
DISCID=7809cd0a
DTITLE=Luu Bich - Tinh Mot Chieu
DYEAR=1998
DGENRE=Viet POP
TTITLE0=Tinh Mot Chieu
TTITLE1=Hien Dang Trong Mua
TTITLE2=Tinh Thoi Xot Xa
TTITLE3=Khi Tinh Yeu Ta Tu
TTITLE4=Hoa Icam
TTITLE5=Dieu Buon Dang Do
TTITLE6=Anh Xa Em Roi
TTITLE7=Trai Tim Mu Loa
TTITLE8=Chia Xa Tinh Dau
TTITLE9=If You Love Me, Let Me Know
EXTD=
EXTT0=
EXTT1=
EXTT2=
EXTT3=
EXTT4=
EXTT5=
EXTT6=
EXTT7=
EXTT8=
EXTT9=
PLAYORDER=
